#!OML:ASF F:\VICON\USERDATA\INSTALL\rory3\rory3.ASF
:FULLY-SPECIFIED
:DEGREES
2648
root -4.80952 18.9435 -2.25806 -171.808 9.13077 188.5
lowerback 6.98917 3.52556 -5.09414
upperback 3.9667 5.19485 -6.11684
thorax 0.367827 2.91517 -3.82643
lowerneck -9.30467 13.1901 -2.86682
upperneck 25.6685 17.6495 -1.26814
head 9.49353 7.18679 1.7889
rclavicle 6.36111e-015 3.81667e-014
rhumerus -1.37802 40.1294 -87.2912
rradius 119.923
rwrist -21.908
rhand -28.3778 7.26734
rfingers 7.12502
rthumb -1.75079 -22.7052
lclavicle 6.36111e-015 3.81667e-014
lhumerus -14.889 -0.0356645 85.7164
lradius 73.8819
lwrist 110.498
lhand -27.9752 42.096
lfingers 7.12502
lthumb -1.36201 72.0714
rfemur -11.8553 7.81915 17.3336
rtibia 37.0775
rfoot -4.94986 -12.7754
rtoes -20.3441
lfemur -18.937 -5.1739 -10.0786
ltibia 29.6327
lfoot -15.8147 15.7695
ltoes -0.0384959
2649
root -4.82968 18.9463 -2.27646 -171.94 8.79599 188.48
lowerback 7.09396 3.5239 -5.16228
upperback 3.93837 5.17435 -6.0767
thorax 0.270362 2.90347 -3.75593
lowerneck -9.38127 13.1789 -2.91771
upperneck 25.8071 17.6272 -1.17427
head 9.54194 7.1694 1.83424
rclavicle -1.43125e-014 -1.11319e-013
rhumerus -0.915106 40.3003 -86.6588
rradius 120.403
rwrist -21.6621
rhand -28.0777 7.8869
rfingers 7.12502
rthumb -1.46092 -22.0878
lclavicle -1.43125e-014 -1.11319e-013
lhumerus -14.5971 -0.193896 85.9244
lradius 74.1122
lwrist 110.301
lhand -27.6079 42.2089
lfingers 7.12502
lthumb -1.00721 72.1863
rfemur -12.2959 7.89841 17.094
rtibia 38.0649
rfoot -4.25416 -12.3121
rtoes -19.9389
lfemur -18.7958 -5.40632 -10.1622
ltibia 29.5653
lfoot -15.7821 15.6345
ltoes -0.0193068
2650
root -4.84659 18.948 -2.29094 -172.077 8.45208 188.385
lowerback 7.21239 3.52909 -5.32823
upperback 3.9251 5.16412 -6.05515
thorax 0.17605 2.89848 -3.65214
lowerneck -9.29306 13.1414 -2.96591
upperneck 25.7055 17.5822 -1.17915
head 9.48576 7.15417 1.82405
rclavicle -3.89618e-014 1.90833e-014
rhumerus -0.342096 40.5672 -85.9333
rradius 120.892
rwrist -21.5236
rhand -27.8898 8.25356
rfingers 7.12502
rthumb -1.27952 -21.7223
lclavicle -3.89618e-014 1.90833e-014
lhumerus -14.1018 -0.291843 86.1819
lradius 74.2188
lwrist 110.068
lhand -27.3505 42.2032
lfingers 7.12502
lthumb -0.758586 72.1816
rfemur -12.7512 7.9379 16.7828
rtibia 39.0393
rfoot -3.50556 -11.8544
rtoes -19.4354
lfemur -18.6671 -5.60757 -10.3154
ltibia 29.455
lfoot -15.7028 15.5047
ltoes 0.28588
2651
root -4.8644 18.9489 -2.30375 -172.273 8.05532 188.191
lowerback 7.35424 3.4779 -5.58585
upperback 3.96092 5.08437 -6.04904
thorax 0.11362 2.86126 -3.50838
lowerneck -9.25655 13.1038 -3.04828
upperneck 25.5051 17.5826 -1.30862
head 9.41455 7.15074 1.78411
rclavicle 2.94201e-014 4.77083e-014
rhumerus 0.169022 41.0582 -85.3127
rradius 121.406
rwrist -21.1871
rhand -27.8748 8.22275
rfingers 7.12502
rthumb -1.26496 -21.7532
lclavicle 2.94201e-014 4.77083e-014
lhumerus -13.4775 -0.278108 86.3739
lradius 74.1837
lwrist 109.939
lhand -26.954 41.8914
lfingers 7.12502
lthumb -0.37569 71.8708
rfemur -13.14 7.88325 16.3742
rtibia 40.0042
rfoot -2.69369 -11.3272
rtoes -19.0777
lfemur -18.4948 -5.84502 -10.5814
ltibia 29.3229
lfoot -15.5292 15.4123
ltoes 0.252301
2652
root -4.88115 18.9496 -2.3161 -172.385 7.61052 188.167
lowerback 7.363 3.41562 -5.61973
upperback 4.0095 5.01086 -6.03736
thorax 0.154645 2.8266 -3.47027
lowerneck -9.3331 13.0649 -3.1063
upperneck 25.4503 17.5586 -1.32194
head 9.40553 7.13871 1.78956
rclavicle 8.74653e-015 1.08139e-013
rhumerus 0.623599 41.608 -84.7814
rradius 121.935
rwrist -20.5869
rhand -28.0395 7.84419
rfingers 7.12502
rthumb -1.42404 -22.1308
lclavicle 8.74653e-015 1.08139e-013
lhumerus -12.8322 -0.360003 86.4717
lradius 74.1054
lwrist 109.895
lhand -26.8008 41.8753
lfingers 7.12502
lthumb -0.227678 71.8549
rfemur -13.5954 7.87937 16.1525
rtibia 40.9682
rfoot -1.84975 -10.804
rtoes -18.8238
lfemur -18.4033 -6.16353 -10.6355
ltibia 29.1909
lfoot -15.3623 15.386
ltoes 0.0138903
2653
root -4.89637 18.9545 -2.32868 -172.495 7.21621 188.159
lowerback 7.39955 3.39393 -5.63681
upperback 4.01627 4.98788 -6.06514
thorax 0.142895 2.81937 -3.49076
lowerneck -9.30413 13.0429 -2.89771
upperneck 25.482 17.5131 -1.41995
head 9.442 7.12283 1.72536
rclavicle 2.94201e-014 6.99722e-014
rhumerus 1.00999 42.0029 -84.3681
rradius 122.277
rwrist -19.9187
rhand -28.3188 8.227
rfingers 7.12502
rthumb -1.69382 -21.746
lclavicle 2.94201e-014 6.99722e-014
lhumerus -12.231 -0.484785 86.5305
lradius 73.9602
lwrist 109.666
lhand -26.7101 42.1495
lfingers 7.12502
lthumb -0.140104 72.1292
rfemur -14.0618 7.95401 15.9355
rtibia 41.9237
rfoot -1.05517 -10.344
rtoes -18.2386
lfemur -18.2922 -6.40548 -10.6769
ltibia 29.0721
lfoot -15.2451 15.265
ltoes -0.232187
2654
root -4.90758 18.9596 -2.33862 -172.63 6.82031 188.116
lowerback 7.59347 3.36937 -5.79078
upperback 3.94512 4.9228 -6.06974
thorax -0.0503681 2.78857 -3.42546
lowerneck -9.22584 13.016 -2.77504
upperneck 25.519 17.4494 -1.44496
head 9.45513 7.09726 1.68972
rclavicle 1.98785e-014 -1.01778e-013
rhumerus 1.1688 42.4689 -84.1894
rradius 122.484
rwrist -19.2046
rhand -28.5311 8.79099
rfingers 7.12502
rthumb -1.89888 -21.1803
lclavicle 1.98785e-014 -1.01778e-013
lhumerus -11.6193 -0.539409 86.585
lradius 73.645
lwrist 109.356
lhand -26.2869 42.5083
lfingers 7.12502
lthumb 0.268649 72.4878
rfemur -14.4881 8.05544 15.6965
rtibia 42.8842
rfoot -0.339551 -9.95491
rtoes -16.7697
lfemur -18.1684 -6.5521 -10.7443
ltibia 28.9427
lfoot -15.0808 15.048
ltoes -0.246578
